<?xml version="1.0" encoding="utf-8"?>
<svg version="1.1" xmlns="http://www.w3.org/2000/svg" width="470" height="531">
  <g>
    <path d="M 234 0 C 237.944 1.268 238.917 3.578 240.836 7.059 C 242.766 10.277 245.175 13.045 247.625 15.875 C 248.115 16.455 248.605 17.035 249.109 17.633 C 251.692 20.753 251.692 20.753 255 23 C 255 23.66 255 24.32 255 25 C 255.549 25.245 256.098 25.49 256.664 25.742 C 259.494 27.266 261.848 29.138 264.375 31.125 C 274.363 38.771 285.193 44.632 297 49 C 297.612 49.234 298.224 49.469 298.854 49.71 C 308.492 53.363 318.197 55.848 328.313 57.813 C 329.903 58.123 329.903 58.123 331.526 58.439 C 345.123 60.943 358.637 61.186 372.418 61.185 C 375.231 61.187 378.043 61.206 380.855 61.225 C 395.957 61.273 410.537 60.095 425.313 56.813 C 426.273 56.601 427.233 56.39 428.222 56.172 C 441.297 53.162 454.047 48.761 466.102 42.848 C 468 42 468 42 470 42 C 470.419 45.98 469.815 48.723 468.234 52.309 C 465.509 58.925 463.783 65.771 462 72.688 C 461.333 75.233 460.667 77.779 460 80.324 C 459.673 81.581 459.346 82.839 459.01 84.134 C 457.655 89.321 456.269 94.499 454.881 99.677 C 451.356 112.975 449.159 126.427 447 140 C 446.861 140.86 446.721 141.721 446.578 142.607 C 445.643 148.395 444.789 154.191 444 160 C 443.872 160.934 443.745 161.868 443.613 162.831 C 436.413 217.1 437.418 272.843 443.679 327.141 C 445.367 342.128 445.845 357.075 443.813 372.063 C 443.679 373.071 443.545 374.08 443.407 375.12 C 440.268 397.202 432.364 418.99 419 437 C 418.34 437 417.68 437 417 437 C 416.753 437.726 416.505 438.451 416.25 439.199 C 414.876 442.278 413.253 444.315 411 446.813 C 410.299 447.603 409.597 448.393 408.875 449.207 C 407 451 407 451 405 451 C 405 451.66 405 452.32 405 453 C 371.687 489.444 317.845 505.26 272.496 520.203 C 271.783 520.438 271.069 520.673 270.335 520.916 C 266.831 522.07 263.327 523.22 259.821 524.365 C 258.496 524.801 257.172 525.236 255.848 525.672 C 254.694 526.049 253.54 526.427 252.352 526.815 C 249.919 527.675 247.605 528.58 245.249 529.612 C 233.993 534.422 222.939 529.239 212.297 525.216 C 206.289 523 200.219 520.964 194.158 518.902 C 191.107 517.864 188.06 516.817 185.012 515.771 C 178.89 513.67 172.765 511.58 166.633 509.508 C 132.732 498.005 100.475 483.347 73 460 C 72.269 459.393 71.538 458.786 70.785 458.16 C 66.102 454.196 61.647 449.958 58 445 C 58 444.34 58 443.68 58 443 C 57.34 443 56.68 443 56 443 C 38.491 422.861 29.565 396.572 26.25 370.563 C 26.122 369.575 25.994 368.587 25.862 367.57 C 24.187 353.045 24.996 338.9 26.596 324.426 C 36.011 238.387 30.342 152.854 7.313 69.313 C 7.039 68.315 6.766 67.318 6.485 66.291 C 4.917 60.738 3.071 55.443 0.783 50.144 C -0.232 47.365 -0.308 44.926 0 42 C 5.271 43.884 10.521 45.781 15.688 47.938 C 56.914 64.403 106.936 66.815 150 56 C 150.735 55.816 151.47 55.631 152.228 55.441 C 157.218 54.151 162.119 52.653 167 51 C 167.728 50.754 168.456 50.508 169.206 50.255 C 185.024 44.787 199.354 37.043 212 26 C 213.114 25.101 213.114 25.101 214.25 24.184 C 222.287 17.5 228.797 9.046 234 0 Z" style="fill: rgb(117, 160, 158);"/>
    <path d="M 470 42 C 470.632 48.003 468.375 52.634 466 58 C 465.67 58 465.34 58 465 58 C 464.34 54.7 463.68 51.4 463 48 C 461.02 48 459.04 48 457 48 C 460.595 44.98 465.186 42 470 42 Z" style="fill: rgb(117, 160, 158);"/>
    <path d="M 0 42 C 1.816 42.616 3.627 43.243 5.438 43.875 C 6.447 44.223 7.456 44.571 8.496 44.93 C 11 46 11 46 12 48 C 10.023 48.731 8.019 49.394 6 50 C 5.34 49.67 4.68 49.34 4 49 C 4.33 51.97 4.66 54.94 5 58 C 0.857 53.103 -0.302 48.346 0 42 Z" style="fill: rgb(117, 160, 158);"/>
    <path d="M 296 512 C 292.756 513.205 289.504 514.386 286.25 515.563 C 284.869 516.076 284.869 516.076 283.461 516.6 C 282.571 516.919 281.682 517.238 280.766 517.566 C 279.949 517.865 279.132 518.163 278.29 518.471 C 275.787 519.049 274.401 518.832 272 518 C 272.66 518 273.32 518 274 518 C 273.34 516.68 272.68 515.36 272 514 C 273.98 513.34 275.96 512.68 278 512 C 278.33 512.66 278.66 513.32 279 514 C 283.02 513.584 286.479 513.177 290.313 511.875 C 293 511 293 511 296 512 Z" style="fill: rgb(117, 160, 158);"/>
    <path d="M 151 500 C 151.99 500.33 152.98 500.66 154 501 C 154 501.66 154 502.32 154 503 C 154.743 502.938 155.485 502.876 156.25 502.813 C 159.567 503.039 160.389 504.032 163 506 C 164.727 506.782 166.479 507.512 168.25 508.188 C 169.142 508.532 170.034 508.876 170.953 509.23 C 171.629 509.484 172.304 509.738 173 510 C 169.235 511.255 168.107 510.539 164.457 509.129 C 163.384 508.72 162.311 508.31 161.205 507.889 C 160.086 507.451 158.966 507.013 157.813 506.563 C 156.681 506.129 155.55 505.695 154.385 505.248 C 151.587 504.174 148.792 503.091 146 502 C 146.639 501.856 147.279 501.711 147.938 501.563 C 149.975 501.19 149.975 501.19 151 500 Z" style="fill: rgb(117, 160, 158);"/>
    <path d="M 199 37 C 199 38.32 199 39.64 199 41 C 196.36 41.33 193.72 41.66 191 42 C 191 42.99 191 43.98 191 45 C 189.588 45.534 188.17 46.052 186.75 46.563 C 185.961 46.853 185.172 47.143 184.359 47.441 C 181.773 48.054 180.505 47.723 178 47 C 179.12 46.446 180.24 45.891 181.395 45.32 C 182.867 44.589 184.34 43.857 185.813 43.125 C 186.55 42.76 187.288 42.395 188.049 42.02 C 188.761 41.665 189.473 41.311 190.207 40.945 C 190.862 40.621 191.516 40.296 192.191 39.961 C 197.764 37 197.764 37 199 37 Z" style="fill: rgb(117, 160, 158);"/>
    <path d="M 336 496 C 333.282 498.718 330.07 499.785 326.563 501.188 C 325.541 501.616 325.541 501.616 324.498 502.053 C 319.361 504.12 319.361 504.12 316 503 C 322.174 497.528 322.174 497.528 326 497 C 329.473 495.842 332.361 495.931 336 496 Z" style="fill: rgb(117, 160, 158);"/>
    <path d="M 155 56 C 154.01 56.495 154.01 56.495 153 57 C 152.67 57.99 152.34 58.98 152 60 C 149.59 61.033 148.196 61.041 145.625 60.5 C 142.466 59.898 140.161 60.442 137 61 C 134.326 61.087 131.676 61.046 129 61 C 129 60.67 129 60.34 129 60 C 132.394 59.326 135.791 58.662 139.188 58 C 140.627 57.714 140.627 57.714 142.096 57.422 C 143.027 57.241 143.958 57.061 144.918 56.875 C 146.198 56.624 146.198 56.624 147.505 56.367 C 150.04 55.994 152.441 55.936 155 56 Z" style="fill: rgb(117, 160, 158);"/>
    <path d="M 283 44 C 290.626 45.907 298.442 48.628 305 53 C 303.35 53.33 301.7 53.66 300 54 C 299.67 53.34 299.34 52.68 299 52 C 296.017 51.179 293.012 50.59 289.98 49.977 C 286.67 48.892 285.193 47.666 283 45 C 283 44.67 283 44.34 283 44 Z" style="fill: rgb(117, 160, 158);"/>
    <path d="M 422 424 C 423.32 424 424.64 424 426 424 C 424.395 428.669 422.025 433.093 419 437 C 418.34 437 417.68 437 417 437 C 417.351 436.072 417.701 435.144 418.063 434.188 C 419.324 431.02 419.324 431.02 418 428 C 418.66 427.34 419.32 426.68 420 426 C 420.66 426.33 421.32 426.66 422 427 C 422 426.01 422 425.02 422 424 Z" style="fill: rgb(117, 160, 158);"/>
    <path d="M 226 12 C 226 15.129 225.575 16.374 224 19 C 223.01 19.495 223.01 19.495 222 20 C 221.344 22.527 221.344 22.527 221 25 C 217 25 217 25 215 24 C 215.701 23.319 216.403 22.639 217.125 21.938 C 220.279 18.792 223.139 15.411 226 12 Z" style="fill: rgb(117, 160, 158);"/>
    <path d="M 457 49 C 456.34 50.32 455.68 51.64 455 53 C 454.01 52.979 453.02 52.959 452 52.938 C 447.934 52.929 444.023 53.435 440 54 C 442.973 52.476 445.98 51.1 449.063 49.813 C 449.92 49.448 450.777 49.083 451.66 48.707 C 454 48 454 48 457 49 Z" style="fill: rgb(117, 160, 158);"/>
    <path d="M 255 25 C 258.283 26.491 260.931 28.386 263.75 30.625 C 264.949 31.572 264.949 31.572 266.172 32.539 C 266.775 33.021 267.378 33.503 268 34 C 266.141 35.055 266.141 35.055 264 36 C 261.75 35.125 261.75 35.125 260 34 C 260.66 33.34 261.32 32.68 262 32 C 261.01 31.67 260.02 31.34 259 31 C 258.67 32.32 258.34 33.64 258 35 C 257.876 33.907 257.753 32.814 257.625 31.688 C 257.245 27.926 257.245 27.926 255 25 Z" style="fill: rgb(117, 160, 158);"/>
    <path d="M 267 518 C 269.475 518.495 269.475 518.495 272 519 C 269.283 521.717 266.131 522.509 262.563 523.688 C 261.541 524.044 261.541 524.044 260.498 524.408 C 255.366 526.122 255.366 526.122 252 525 C 256.95 523.515 256.95 523.515 262 522 C 262 521.34 262 520.68 262 520 C 263.65 520 265.3 520 267 520 C 267 519.34 267 518.68 267 518 Z" style="fill: rgb(117, 160, 158);"/>
    <path d="M 83 467 C 85.97 467.33 88.94 467.66 92 468 C 91.67 469.32 91.34 470.64 91 472 C 92.32 471.67 93.64 471.34 95 471 C 95.33 472.65 95.66 474.3 96 476 C 90.973 474.429 86.971 471.38 83 468 C 83 467.67 83 467.34 83 467 Z" style="fill: rgb(117, 160, 158);"/>
    <path d="M 129 489 C 129.33 489.99 129.66 490.98 130 492 C 131.65 492.33 133.3 492.66 135 493 C 134.67 493.99 134.34 494.98 134 496 C 129.872 495.393 126.668 493.962 123 492 C 123 491.67 123 491.34 123 491 C 124.98 490.34 126.96 489.68 129 489 Z" style="fill: rgb(117, 160, 158);"/>
    <path d="M 55 440 C 57.97 440.495 57.97 440.495 61 441 C 61.731 442.977 62.394 444.981 63 447 C 62.67 447.66 62.34 448.32 62 449 C 60.624 447.71 59.292 446.373 58 445 C 58 444.34 58 443.68 58 443 C 57.34 443 56.68 443 56 443 C 55.67 442.01 55.34 441.02 55 440 Z" style="fill: rgb(117, 160, 158);"/>
    <path d="M 234 0 C 235.32 0.66 236.64 1.32 238 2 C 237.67 2.99 237.34 3.98 237 5 C 236.67 4.34 236.34 3.68 236 3 C 235.34 3 234.68 3 234 3 C 234 4.65 234 6.3 234 8 C 231.69 9.32 229.38 10.64 227 12 C 228.383 9.131 229.921 6.44 231.625 3.75 C 232.071 3.044 232.517 2.337 232.977 1.609 C 233.314 1.078 233.652 0.547 234 0 Z" style="fill: rgb(117, 160, 158);"/>
    <path d="M 243 12 C 246.981 14.875 249.436 17.821 252 22 C 249.69 22 247.38 22 245 22 C 245.227 21.237 245.454 20.474 245.688 19.688 C 245.791 18.801 245.894 17.914 246 17 C 244.625 15.291 244.625 15.291 243 14 C 243 13.34 243 12.68 243 12 Z" style="fill: rgb(117, 160, 158);"/>
    <path d="M 134 496 C 137.051 495.712 139.962 495.542 143 496 C 145.063 498.5 145.063 498.5 146 501 C 141.611 500.335 138.019 498.812 134 497 C 134 496.67 134 496.34 134 496 Z" style="fill: rgb(117, 160, 158);"/>
    <path d="M 363 478 C 363.578 478.186 364.155 478.371 364.75 478.563 C 367.207 479.04 368.644 478.757 371 478 C 368.203 481.291 364.805 483.063 361 485 C 360.34 484.67 359.68 484.34 359 484 C 359.99 483.34 360.98 482.68 362 482 C 362.724 479.941 362.724 479.941 363 478 Z" style="fill: rgb(117, 160, 158);"/>
    <path d="M 444 144 C 444.33 144 444.66 144 445 144 C 445.097 149.447 445.129 154.639 444 160 C 443.67 160 443.34 160 443 160 C 442.67 156.04 442.34 152.08 442 148 C 442.66 148 443.32 148 444 148 C 444 146.68 444 145.36 444 144 Z" style="fill: rgb(117, 160, 158);"/>
    <path d="M 209 30 C 208.67 31.65 208.34 33.3 208 35 C 207.01 34.67 206.02 34.34 205 34 C 205 34.66 205 35.32 205 36 C 203.02 36.33 201.04 36.66 199 37 C 205.759 30 205.759 30 209 30 Z" style="fill: rgb(117, 160, 158);"/>
    <path d="M 347 488 C 348.32 488.66 349.64 489.32 351 490 C 349.069 491.033 347.13 492.051 345.188 493.063 C 344.109 493.631 343.03 494.199 341.918 494.785 C 339 496 339 496 336 495 C 337.289 494.328 338.581 493.663 339.875 493 C 340.594 492.629 341.314 492.258 342.055 491.875 C 344 491 344 491 346 491 C 346.33 490.01 346.66 489.02 347 488 Z" style="fill: rgb(117, 160, 158);"/>
    <path d="M 427.563 415.938 C 428.769 415.968 428.769 415.968 430 416 C 429.502 419.688 428.899 421.605 426 424 C 425.856 423.402 425.711 422.804 425.563 422.188 C 425.113 420.438 424.571 418.713 424 417 C 425 416 425 416 427.563 415.938 Z" style="fill: rgb(117, 160, 158);"/>
    <path d="M 30 387 C 30.33 387 30.66 387 31 387 C 31 388.65 31 390.3 31 392 C 32.32 392 33.64 392 35 392 C 35 392.66 35 393.32 35 394 C 34.34 394 33.68 394 33 394 C 33.33 396.64 33.66 399.28 34 402 C 30.732 397.097 29.721 392.868 30 387 Z" fill="#989FAE"/>
    <path d="M 45 58 C 46.729 58.142 48.459 58.289 50.188 58.438 C 51.632 58.559 51.632 58.559 53.105 58.684 C 55.786 58.977 58.366 59.427 61 60 C 61 60.33 61 60.66 61 61 C 57.7 61.33 54.4 61.66 51 62 C 50.67 61.34 50.34 60.68 50 60 C 47.473 59.344 47.473 59.344 45 59 C 45 58.67 45 58.34 45 58 Z" style="fill: rgb(117, 160, 158);"/>
    <path d="M 199 37 C 199 38.32 199 39.64 199 41 C 195.7 41.66 192.4 42.32 189 43 C 195 37 195 37 199 37 Z" style="fill: rgb(117, 160, 158);"/>
    <path d="M 322 498 C 322.99 498.33 323.98 498.66 325 499 C 324 502 324 502 321.625 503.25 C 319 504 319 504 316 503 C 320.395 498.996 320.395 498.996 322 498 Z" style="fill: rgb(117, 160, 158);"/>
    <path d="M 405 445 C 405.66 445.99 406.32 446.98 407 448 C 407.66 447.67 408.32 447.34 409 447 C 408.34 448.32 407.68 449.64 407 451 C 406.34 451 405.68 451 405 451 C 405 451.66 405 452.32 405 453 C 404.34 452.67 403.68 452.34 403 452 C 402.375 449.938 402.375 449.938 402 448 C 402.66 448 403.32 448 404 448 C 404.33 447.01 404.66 446.02 405 445 Z" style="fill: rgb(117, 160, 158);"/>
    <path d="M 50 425 C 50.66 425.33 51.32 425.66 52 426 C 52 426.66 52 427.32 52 428 C 51.01 428 50.02 428 49 428 C 49.516 428.949 50.031 429.898 50.563 430.875 C 51.037 431.906 51.511 432.938 52 434 C 51.67 434.66 51.34 435.32 51 436 C 49.35 433.69 47.7 431.38 46 429 C 47 427 47 427 50 425 Z" style="fill: rgb(117, 160, 158);"/>
    <path d="M 187 512 C 187.33 513.32 187.66 514.64 188 516 C 183.545 515.01 183.545 515.01 179 514 C 182.228 511.848 183.284 511.799 187 512 Z" style="fill: rgb(117, 160, 158);"/>
    <path d="M 221 523 C 221.99 523 222.98 523 224 523 C 224.66 524.98 225.32 526.96 226 529 C 222.625 528.453 220.918 527.945 218 526 C 219.32 525.67 220.64 525.34 222 525 C 221.67 524.34 221.34 523.68 221 523 Z" style="fill: rgb(117, 160, 158);"/>
    <path d="M 99 478 C 101.64 478.33 104.28 478.66 107 479 C 107.33 480.32 107.66 481.64 108 483 C 104.225 481.909 101.53 481.092 99 478 Z" style="fill: rgb(117, 160, 158);"/>
    <path d="M 388 463 C 388.99 463.66 389.98 464.32 391 465 C 388.03 467.475 388.03 467.475 385 470 C 384.34 469.67 383.68 469.34 383 469 C 385.75 464.125 385.75 464.125 388 463 Z" style="fill: rgb(117, 160, 158);"/>
    <path d="M 217 21 C 218.32 21 219.64 21 221 21 C 221 22.32 221 23.64 221 25 C 217 25 217 25 215 24 C 215.66 23.01 216.32 22.02 217 21 Z" style="fill: rgb(117, 160, 158);"/>
    <path d="M 377 470 C 378.98 470 380.96 470 383 470 C 381.35 471.65 379.7 473.3 378 475 C 377.34 474.67 376.68 474.34 376 474 C 376.33 472.68 376.66 471.36 377 470 Z" style="fill: rgb(117, 160, 158);"/>
    <path d="M 83 467 C 85.97 467.33 88.94 467.66 92 468 C 91.34 469.32 90.68 470.64 90 472 C 84.125 469.25 84.125 469.25 83 467 Z" style="fill: rgb(117, 160, 158);"/>
    <path d="M 4 44 C 6.352 44.599 8.686 45.269 11 46 C 11.33 46.66 11.66 47.32 12 48 C 9.69 48 7.38 48 5 48 C 4.67 46.68 4.34 45.36 4 44 Z" style="fill: rgb(117, 160, 158);"/>
  </g>
</svg>