<?xml version="1.0" encoding="UTF-8"?>
<svg version="1.1" xmlns="http://www.w3.org/2000/svg" width="470" height="531">
<path d="M0 0 C3.9435658 1.26757472 4.91675213 3.57766969 6.8359375 7.05932617 C8.76571066 10.27655916 11.175241 13.04533185 13.625 15.875 C14.11484375 16.45507812 14.6046875 17.03515625 15.109375 17.6328125 C17.69216122 20.75275361 17.69216122 20.75275361 21 23 C21 23.66 21 24.32 21 25 C21.54914063 25.24492187 22.09828125 25.48984375 22.6640625 25.7421875 C25.49374655 27.26586353 27.84823265 29.13819937 30.375 31.125 C40.36263388 38.77100579 51.19286326 44.63220478 63 49 C63.61198242 49.23428711 64.22396484 49.46857422 64.85449219 49.70996094 C74.49220123 53.36269541 84.19656164 55.84756483 94.3125 57.8125 C95.90312256 58.1228418 95.90312256 58.1228418 97.52587891 58.43945312 C111.12267326 60.94340471 124.63706903 61.18649552 138.41845703 61.18530273 C141.2309493 61.18748522 144.04304562 61.20569614 146.85546875 61.22460938 C161.95663493 61.27279074 176.53702544 60.0947312 191.3125 56.8125 C192.2725293 56.60109375 193.23255859 56.3896875 194.22167969 56.171875 C207.29733737 53.16202285 220.04734472 48.76068737 232.1015625 42.84765625 C234 42 234 42 236 42 C236.41896488 45.98016637 235.81532335 48.72309182 234.234375 52.30859375 C231.50909632 58.92505865 229.78292757 65.77082052 228 72.6875 C227.33333333 75.23307292 226.66666667 77.77864583 226 80.32421875 C225.67322266 81.58145752 225.34644531 82.83869629 225.00976562 84.1340332 C223.65498301 89.32092457 222.26916939 94.49924399 220.88085938 99.67724609 C217.35576083 112.97452748 215.15895825 126.42685897 213 140 C212.86062012 140.86044922 212.72124023 141.72089844 212.57763672 142.60742188 C211.64275409 148.3951215 210.78900595 154.19062555 210 160 C209.87238281 160.93424805 209.74476563 161.86849609 209.61328125 162.83105469 C202.4130585 217.10006031 203.41755002 272.84290686 209.67871094 327.14086914 C211.36744143 342.12838882 211.84498179 357.07541979 209.8125 372.0625 C209.6786792 373.07143311 209.5448584 374.08036621 209.40698242 375.11987305 C206.26831824 397.20243009 198.36444177 418.99029687 185 437 C184.34 437 183.68 437 183 437 C182.7525 437.72574219 182.505 438.45148438 182.25 439.19921875 C180.87572546 442.27845264 179.25344071 444.31466039 177 446.8125 C176.29875 447.60269531 175.5975 448.39289063 174.875 449.20703125 C173 451 173 451 171 451 C171 451.66 171 452.32 171 453 C137.68658251 489.44437778 83.8454791 505.26047263 38.49609375 520.203125 C37.78279404 520.43823288 37.06949432 520.67334076 36.33457947 520.91557312 C32.83131797 522.06957837 29.32691761 523.21993381 25.82080078 524.36523438 C24.49638233 524.8006689 23.17199918 525.23621084 21.84765625 525.671875 C20.69402588 526.04924805 19.54039551 526.42662109 18.35180664 526.81542969 C15.91884894 527.67526731 13.60525423 528.57971177 11.24853516 529.61181641 C-0.00704691 534.42161947 -11.06071313 529.23873737 -21.703125 525.21582031 C-27.71080387 523.00031078 -33.78056697 520.96379895 -39.84246826 518.90234375 C-42.89263004 517.86357432 -45.94022492 516.81738444 -48.98788452 515.77130127 C-55.10984362 513.67004402 -61.23528654 511.57987911 -67.3671875 509.5078125 C-101.26791367 498.00473305 -133.52498078 483.3473168 -161 460 C-161.73089844 459.39285156 -162.46179688 458.78570312 -163.21484375 458.16015625 C-167.89783901 454.19623896 -172.35268226 449.95807255 -176 445 C-176 444.34 -176 443.68 -176 443 C-176.66 443 -177.32 443 -178 443 C-195.50881344 422.8607545 -204.43464721 396.57225536 -207.75 370.5625 C-207.87802002 369.57491699 -208.00604004 368.58733398 -208.13793945 367.56982422 C-209.8133408 353.04495646 -209.00387647 338.89969307 -207.4041748 324.42626953 C-197.98929186 238.38733053 -203.65819543 152.85384762 -226.6875 69.3125 C-226.96070068 68.31549072 -227.23390137 67.31848145 -227.51538086 66.29125977 C-229.08287404 60.73808518 -230.92922815 55.44318159 -233.21704102 50.14379883 C-234.23179445 47.36532987 -234.30801651 44.9261568 -234 42 C-228.72876462 43.88401569 -223.47919114 45.78104458 -218.3125 47.9375 C-177.08560934 64.40252965 -127.0642582 66.8150118 -84 56 C-83.26475098 55.81566406 -82.52950195 55.63132813 -81.77197266 55.44140625 C-76.78172904 54.15073009 -71.88147365 52.65316527 -67 51 C-66.27216309 50.75411133 -65.54432617 50.50822266 -64.79443359 50.25488281 C-48.97633206 44.78664298 -34.64588506 37.04256749 -22 26 C-20.88625 25.10087891 -20.88625 25.10087891 -19.75 24.18359375 C-11.71333371 17.50032439 -5.20281546 9.0461856 0 0 Z " fill="#021534" transform="translate(234,0)"/>
<path d="M0 0 C0.6319296 6.00333124 -1.62455877 10.63404795 -4 16 C-4.33 16 -4.66 16 -5 16 C-5.66 12.7 -6.32 9.4 -7 6 C-8.98 6 -10.96 6 -13 6 C-9.40464172 2.97989905 -4.81374718 0 0 0 Z " fill="#656F7F" transform="translate(470,42)"/>
<path d="M0 0 C1.81552978 0.61614355 3.6273653 1.24318228 5.4375 1.875 C6.44683594 2.22304688 7.45617187 2.57109375 8.49609375 2.9296875 C11 4 11 4 12 6 C10.02253397 6.73080266 8.01927511 7.39421747 6 8 C5.34 7.67 4.68 7.34 4 7 C4.33 9.97 4.66 12.94 5 16 C0.85674405 11.10342479 -0.30217221 6.34561631 0 0 Z " fill="#5C6678" transform="translate(0,42)"/>
<path d="M0 0 C-3.24377174 1.20502099 -6.49582689 2.38588782 -9.75 3.5625 C-11.13058594 4.07586914 -11.13058594 4.07586914 -12.5390625 4.59960938 C-13.42851562 4.91865234 -14.31796875 5.23769531 -15.234375 5.56640625 C-16.05131836 5.86490479 -16.86826172 6.16340332 -17.70996094 6.47094727 C-20.21309263 7.04922939 -21.59871738 6.83176958 -24 6 C-23.34 6 -22.68 6 -22 6 C-22.66 4.68 -23.32 3.36 -24 2 C-22.02 1.34 -20.04 0.68 -18 0 C-17.67 0.66 -17.34 1.32 -17 2 C-12.98043687 1.58418312 -9.52081685 1.17688119 -5.6875 -0.125 C-3 -1 -3 -1 0 0 Z " fill="#737D8F" transform="translate(296,512)"/>
<path d="M0 0 C0.99 0.33 1.98 0.66 3 1 C3 1.66 3 2.32 3 3 C3.7425 2.938125 4.485 2.87625 5.25 2.8125 C8.56662296 3.03863338 9.38864131 4.03201954 12 6 C13.72688742 6.78233233 15.47873647 7.51162313 17.25 8.1875 C18.14203125 8.53167969 19.0340625 8.87585938 19.953125 9.23046875 C20.62859375 9.48441406 21.3040625 9.73835938 22 10 C18.23506762 11.25497746 17.10728038 10.53879083 13.45703125 9.12890625 C12.38388672 8.71962891 11.31074219 8.31035156 10.20507812 7.88867188 C9.08552734 7.45103516 7.96597656 7.01339844 6.8125 6.5625 C5.68134766 6.12873047 4.55019531 5.69496094 3.38476562 5.24804688 C0.58653941 4.17362246 -2.20806781 3.09065286 -5 2 C-4.360625 1.855625 -3.72125 1.71125 -3.0625 1.5625 C-1.02454854 1.18992819 -1.02454854 1.18992819 0 0 Z " fill="#858E9A" transform="translate(151,500)"/>
<path d="M0 0 C0 1.32 0 2.64 0 4 C-2.64 4.33 -5.28 4.66 -8 5 C-8 5.99 -8 6.98 -8 8 C-9.4117783 8.53394179 -10.82970244 9.05165104 -12.25 9.5625 C-13.03890625 9.85253906 -13.8278125 10.14257812 -14.640625 10.44140625 C-17.22741227 11.05384098 -18.49494634 10.72332269 -21 10 C-19.87980469 9.44570313 -18.75960937 8.89140625 -17.60546875 8.3203125 C-16.13275962 7.58864809 -14.66010628 6.85687139 -13.1875 6.125 C-12.44951172 5.76019531 -11.71152344 5.39539062 -10.95117188 5.01953125 C-10.23896484 4.66503906 -9.52675781 4.31054688 -8.79296875 3.9453125 C-8.1383667 3.62062988 -7.48376465 3.29594727 -6.80932617 2.96142578 C-1.23616049 0 -1.23616049 0 0 0 Z " fill="#818797" transform="translate(199,37)"/>
<path d="M0 0 C-2.71760277 2.71760277 -5.92987916 3.78511161 -9.4375 5.1875 C-10.4594043 5.61579102 -10.4594043 5.61579102 -11.50195312 6.05273438 C-16.63859042 8.12046986 -16.63859042 8.12046986 -20 7 C-13.82617801 1.52774869 -13.82617801 1.52774869 -10 1 C-6.52674819 -0.1577506 -3.63932552 -0.06866652 0 0 Z " fill="#798190" transform="translate(336,496)"/>
<path d="M0 0 C-0.99 0.495 -0.99 0.495 -2 1 C-2.33 1.99 -2.66 2.98 -3 4 C-5.41005594 5.03288112 -6.80359166 5.04134912 -9.375 4.5 C-12.53358596 3.89836458 -14.83928537 4.44222683 -18 5 C-20.67368568 5.08702774 -23.32379897 5.0461414 -26 5 C-26 4.67 -26 4.34 -26 4 C-22.60563644 3.32570033 -19.20929807 2.6619172 -15.8125 2 C-14.37293945 1.71382812 -14.37293945 1.71382812 -12.90429688 1.421875 C-11.97294922 1.24140625 -11.04160156 1.0609375 -10.08203125 0.875 C-8.80162964 0.62363281 -8.80162964 0.62363281 -7.49536133 0.3671875 C-4.95954897 -0.00595229 -2.55918603 -0.06412996 0 0 Z " fill="#798292" transform="translate(155,56)"/>
<path d="M0 0 C7.62612904 1.90653226 15.44246392 4.62830928 22 9 C20.35 9.33 18.7 9.66 17 10 C16.67 9.34 16.34 8.68 16 8 C13.01727125 7.17873429 10.01233541 6.58958304 6.98046875 5.9765625 C3.66977557 4.89180064 2.19317629 3.66579781 0 1 C0 0.67 0 0.34 0 0 Z " fill="#7E8795" transform="translate(283,44)"/>
<path d="M0 0 C1.32 0 2.64 0 4 0 C2.39516194 4.66861981 0.02509806 9.09258167 -3 13 C-3.66 13 -4.32 13 -5 13 C-4.649375 12.071875 -4.29875 11.14375 -3.9375 10.1875 C-2.67617372 7.0197047 -2.67617372 7.0197047 -4 4 C-3.34 3.34 -2.68 2.68 -2 2 C-1.34 2.33 -0.68 2.66 0 3 C0 2.01 0 1.02 0 0 Z " fill="#667082" transform="translate(422,424)"/>
<path d="M0 0 C0 3.12900213 -0.42451317 4.37418862 -2 7 C-2.99 7.495 -2.99 7.495 -4 8 C-4.65555119 10.52733235 -4.65555119 10.52733235 -5 13 C-9 13 -9 13 -11 12 C-10.29875 11.319375 -9.5975 10.63875 -8.875 9.9375 C-5.72065663 6.79219487 -2.86065696 3.4111614 0 0 Z " fill="#8A91A0" transform="translate(226,12)"/>
<path d="M0 0 C-0.66 1.32 -1.32 2.64 -2 4 C-2.99 3.979375 -3.98 3.95875 -5 3.9375 C-9.06568074 3.92918572 -12.97662176 4.43531533 -17 5 C-14.02719558 3.47566177 -11.02018843 2.10044072 -7.9375 0.8125 C-7.08027344 0.44769531 -6.22304688 0.08289062 -5.33984375 -0.29296875 C-3 -1 -3 -1 0 0 Z " fill="#7D8795" transform="translate(457,49)"/>
<path d="M0 0 C3.2826932 1.49076434 5.93077441 3.38620321 8.75 5.625 C9.94882812 6.57246094 9.94882812 6.57246094 11.171875 7.5390625 C11.77515625 8.02117188 12.3784375 8.50328125 13 9 C11.140625 10.0546875 11.140625 10.0546875 9 11 C6.75 10.125 6.75 10.125 5 9 C5.66 8.34 6.32 7.68 7 7 C6.01 6.67 5.02 6.34 4 6 C3.67 7.32 3.34 8.64 3 10 C2.87625 8.906875 2.7525 7.81375 2.625 6.6875 C2.24535199 2.92618198 2.24535199 2.92618198 0 0 Z " fill="#717B8C" transform="translate(255,25)"/>
<path d="M0 0 C2.475 0.495 2.475 0.495 5 1 C2.28256973 3.71743027 -0.86942046 4.50932886 -4.4375 5.6875 C-5.4594043 6.04424805 -5.4594043 6.04424805 -6.50195312 6.40820312 C-11.63364573 8.12211809 -11.63364573 8.12211809 -15 7 C-10.05 5.515 -10.05 5.515 -5 4 C-5 3.34 -5 2.68 -5 2 C-3.35 2 -1.7 2 0 2 C0 1.34 0 0.68 0 0 Z " fill="#9BA3AF" transform="translate(267,518)"/>
<path d="M0 0 C2.97 0.33 5.94 0.66 9 1 C8.67 2.32 8.34 3.64 8 5 C9.32 4.67 10.64 4.34 12 4 C12.33 5.65 12.66 7.3 13 9 C7.97290493 7.42903279 3.97133531 4.38006951 0 1 C0 0.67 0 0.34 0 0 Z " fill="#939BA5" transform="translate(83,467)"/>
<path d="M0 0 C0.33 0.99 0.66 1.98 1 3 C2.65 3.33 4.3 3.66 6 4 C5.67 4.99 5.34 5.98 5 7 C0.87248551 6.39301257 -2.3321148 4.96189209 -6 3 C-6 2.67 -6 2.34 -6 2 C-4.02 1.34 -2.04 0.68 0 0 Z " fill="#5A6273" transform="translate(129,489)"/>
<path d="M0 0 C2.97 0.495 2.97 0.495 6 1 C6.73080266 2.97746603 7.39421747 4.98072489 8 7 C7.67 7.66 7.34 8.32 7 9 C5.62437146 7.71034824 4.29233607 6.37310707 3 5 C3 4.34 3 3.68 3 3 C2.34 3 1.68 3 1 3 C0.67 2.01 0.34 1.02 0 0 Z " fill="#545E73" transform="translate(55,440)"/>
<path d="M0 0 C1.32 0.66 2.64 1.32 4 2 C3.67 2.99 3.34 3.98 3 5 C2.67 4.34 2.34 3.68 2 3 C1.34 3 0.68 3 0 3 C0 4.65 0 6.3 0 8 C-2.31 9.32 -4.62 10.64 -7 12 C-5.61735163 9.13132769 -4.07851447 6.43975968 -2.375 3.75 C-1.92898437 3.04359375 -1.48296875 2.3371875 -1.0234375 1.609375 C-0.68570313 1.07828125 -0.34796875 0.5471875 0 0 Z " fill="#99A0AD" transform="translate(234,0)"/>
<path d="M0 0 C3.98069267 2.87494471 6.43571997 5.82117329 9 10 C6.69 10 4.38 10 2 10 C2.226875 9.236875 2.45375 8.47375 2.6875 7.6875 C2.790625 6.800625 2.89375 5.91375 3 5 C1.62485459 3.2912354 1.62485459 3.2912354 0 2 C0 1.34 0 0.68 0 0 Z " fill="#6B7486" transform="translate(243,12)"/>
<path d="M0 0 C3.05074215 -0.28780586 5.96183742 -0.45787911 9 0 C11.0625 2.5 11.0625 2.5 12 5 C7.61110675 4.33501617 4.0188515 2.81242323 0 1 C0 0.67 0 0.34 0 0 Z " fill="#767D8D" transform="translate(134,496)"/>
<path d="M0 0 C0.5775 0.185625 1.155 0.37125 1.75 0.5625 C4.20692525 1.04023546 5.64397534 0.75729364 8 0 C5.20283196 3.29078593 1.80471422 5.06305458 -2 7 C-2.66 6.67 -3.32 6.34 -4 6 C-3.01 5.34 -2.02 4.68 -1 4 C-0.27617533 1.94074861 -0.27617533 1.94074861 0 0 Z " fill="#8D93A4" transform="translate(363,478)"/>
<path d="M0 0 C0.33 0 0.66 0 1 0 C1.09688221 5.44693314 1.12862175 10.63904667 0 16 C-0.33 16 -0.66 16 -1 16 C-1.33 12.04 -1.66 8.08 -2 4 C-1.34 4 -0.68 4 0 4 C0 2.68 0 1.36 0 0 Z " fill="#8D97A5" transform="translate(444,144)"/>
<path d="M0 0 C-0.33 1.65 -0.66 3.3 -1 5 C-1.99 4.67 -2.98 4.34 -4 4 C-4 4.66 -4 5.32 -4 6 C-5.98 6.33 -7.96 6.66 -10 7 C-3.24137931 0 -3.24137931 0 0 0 Z " fill="#808898" transform="translate(209,30)"/>
<path d="M0 0 C1.32 0.66 2.64 1.32 4 2 C2.06891037 3.03290841 0.129882 4.05098672 -1.8125 5.0625 C-2.89144531 5.63097656 -3.97039062 6.19945312 -5.08203125 6.78515625 C-8 8 -8 8 -11 7 C-9.71086513 6.32845067 -8.41859796 5.66291141 -7.125 5 C-6.40570313 4.62875 -5.68640625 4.2575 -4.9453125 3.875 C-3 3 -3 3 -1 3 C-0.67 2.01 -0.34 1.02 0 0 Z " fill="#9EA6B2" transform="translate(347,488)"/>
<path d="M0 0 C1.2065625 0.0309375 1.2065625 0.0309375 2.4375 0.0625 C1.93918276 3.75004757 1.33682357 5.66740662 -1.5625 8.0625 C-1.706875 7.464375 -1.85125 6.86625 -2 6.25 C-2.4497439 4.50099596 -2.99142341 2.77572977 -3.5625 1.0625 C-2.5625 0.0625 -2.5625 0.0625 0 0 Z " fill="#6A7489" transform="translate(427.5625,415.9375)"/>
<path d="M0 0 C0.33 0 0.66 0 1 0 C1 1.65 1 3.3 1 5 C2.32 5 3.64 5 5 5 C5 5.66 5 6.32 5 7 C4.34 7 3.68 7 3 7 C3.33 9.64 3.66 12.28 4 15 C0.73154287 10.09731431 -0.27944109 5.86826297 0 0 Z " fill="#989FAE" transform="translate(30,387)"/>
<path d="M0 0 C1.72945653 0.14235457 3.45855654 0.28904382 5.1875 0.4375 C6.63189453 0.55931641 6.63189453 0.55931641 8.10546875 0.68359375 C10.78649602 0.97666151 13.3662986 1.42703754 16 2 C16 2.33 16 2.66 16 3 C12.7 3.33 9.4 3.66 6 4 C5.67 3.34 5.34 2.68 5 2 C2.47266765 1.34444881 2.47266765 1.34444881 0 1 C0 0.67 0 0.34 0 0 Z " fill="#929CA9" transform="translate(45,58)"/>
<path d="M0 0 C0 1.32 0 2.64 0 4 C-3.3 4.66 -6.6 5.32 -10 6 C-4 0 -4 0 0 0 Z " fill="#88919B" transform="translate(199,37)"/>
<path d="M0 0 C0.99 0.33 1.98 0.66 3 1 C2 4 2 4 -0.375 5.25 C-3 6 -3 6 -6 5 C-1.60546875 0.99609375 -1.60546875 0.99609375 0 0 Z " fill="#535C6E" transform="translate(322,498)"/>
<path d="M0 0 C0.66 0.99 1.32 1.98 2 3 C2.66 2.67 3.32 2.34 4 2 C3.34 3.32 2.68 4.64 2 6 C1.34 6 0.68 6 0 6 C0 6.66 0 7.32 0 8 C-0.66 7.67 -1.32 7.34 -2 7 C-2.625 4.9375 -2.625 4.9375 -3 3 C-2.34 3 -1.68 3 -1 3 C-0.67 2.01 -0.34 1.02 0 0 Z " fill="#657081" transform="translate(405,445)"/>
<path d="M0 0 C0.66 0.33 1.32 0.66 2 1 C2 1.66 2 2.32 2 3 C1.01 3 0.02 3 -1 3 C-0.484375 3.94875 0.03125 4.8975 0.5625 5.875 C1.036875 6.90625 1.51125 7.9375 2 9 C1.67 9.66 1.34 10.32 1 11 C-0.65 8.69 -2.3 6.38 -4 4 C-3 2 -3 2 0 0 Z " fill="#787F94" transform="translate(50,425)"/>
<path d="M0 0 C0.33 1.32 0.66 2.64 1 4 C-3.455 3.01 -3.455 3.01 -8 2 C-4.77208445 -0.1519437 -3.71599191 -0.20086443 0 0 Z " fill="#6F7887" transform="translate(187,512)"/>
<path d="M0 0 C0.99 0 1.98 0 3 0 C3.66 1.98 4.32 3.96 5 6 C1.62537285 5.45276317 -0.08235 4.9451 -3 3 C-1.68 2.67 -0.36 2.34 1 2 C0.67 1.34 0.34 0.68 0 0 Z " fill="#657083" transform="translate(221,523)"/>
<path d="M0 0 C2.64 0.33 5.28 0.66 8 1 C8.33 2.32 8.66 3.64 9 5 C5.22454612 3.90931332 2.52956528 3.0916909 0 0 Z " fill="#778290" transform="translate(99,478)"/>
<path d="M0 0 C0.99 0.66 1.98 1.32 3 2 C0.03 4.475 0.03 4.475 -3 7 C-3.66 6.67 -4.32 6.34 -5 6 C-2.25 1.125 -2.25 1.125 0 0 Z " fill="#808897" transform="translate(388,463)"/>
<path d="M0 0 C1.32 0 2.64 0 4 0 C4 1.32 4 2.64 4 4 C0 4 0 4 -2 3 C-1.34 2.01 -0.68 1.02 0 0 Z " fill="#4F596F" transform="translate(217,21)"/>
<path d="M0 0 C1.98 0 3.96 0 6 0 C4.35 1.65 2.7 3.3 1 5 C0.34 4.67 -0.32 4.34 -1 4 C-0.67 2.68 -0.34 1.36 0 0 Z " fill="#888D9E" transform="translate(377,470)"/>
<path d="M0 0 C2.97 0.33 5.94 0.66 9 1 C8.34 2.32 7.68 3.64 7 5 C1.125 2.25 1.125 2.25 0 0 Z " fill="#515A6D" transform="translate(83,467)"/>
<path d="M0 0 C2.35171131 0.59861742 4.6859378 1.26924352 7 2 C7.33 2.66 7.66 3.32 8 4 C5.69 4 3.38 4 1 4 C0.67 2.68 0.34 1.36 0 0 Z " fill="#7B8593" transform="translate(4,44)"/>
</svg>
